<svg xmlns:xlink="http://www.w3.org/1999/xlink" xmlns="http://www.w3.org/2000/svg" viewBox="0 0 512 320" height="320" width="512"><g><svg></svg></g><g><svg viewBox="0 0 512 320" height="320" width="512"><g><path xmlns="http://www.w3.org/2000/svg" d="M96 160c0-88.366 71.634-160 160-160 88.366 0 160 71.634 160 160 0 88.366-71.634 160-160 160-88.366 0-160-71.634-160-160z" fill="#31C48D" fill-rule="nonzero" stroke="none" stroke-width="1" stroke-linecap="butt" stroke-linejoin="miter" stroke-miterlimit="10" stroke-dasharray="" stroke-dashoffset="0" font-family="none" font-weight="none" font-size="none" text-anchor="none" style="mix-blend-mode: normal" data-fill-palette-color="tertiary"></path></g><g transform="matrix(1,0,0,1,116.13999999999999,20.139999999999986)"><svg viewBox="0 0 279.72 279.72" height="279.72" width="279.72"><g><svg viewBox="0 0 279.72 279.72" height="279.72" width="279.72"><g><svg viewBox="0 0 279.72 279.72" height="279.72" width="279.72"><g id="textblocktransform"><svg viewBox="0 0 279.72 279.72" height="279.72" width="279.72" id="textblock"><g><svg viewBox="0 0 279.72 279.72" height="279.72" width="279.72"><g transform="matrix(1,0,0,1,81.77475779208365,73.92936372216631)"><svg viewBox="0 0 116.17048441583272 131.8612725556674" height="131.8612725556674" width="116.17048441583272"><g><svg xmlns="http://www.w3.org/2000/svg" xmlns:xlink="http://www.w3.org/1999/xlink" version="1.1" x="0" y="0" viewBox="-337.1669921875 256.13226318359375 87.9840087890625 99.86773681640625" enable-background="new -346 256 100 100" xml:space="preserve" height="131.8612725556674" width="116.17048441583272" class="icon-o-0" data-fill-palette-color="quaternary" id="o-0"><path d="M-263.363 311.56l-6.967-25.521-19.562-12.246 19.148-3.609 0.413-5.213c0 0-14.309-6.192-25.391-8.708-2.433-0.553-4.653 8.025-6.731 7.853-2.199-0.184-3.021-8.415-4.454-7.966-8.955 2.807-14.775 15.64-14.775 15.64l13.432 5.213-19.7 16.04v42.107L-337.167 356h87.984L-263.363 311.56zM-296.575 337.709c-11.64 0-21.076-9.436-21.076-21.076 0-11.639 9.436-21.075 21.076-21.075s21.076 9.436 21.076 21.075C-275.499 328.273-284.936 337.709-296.575 337.709z" fill="#FFFFFF" data-fill-palette-color="quaternary"></path><path d="M-297.026 313.592c-1.286-0.602-2.143-1.31-2.143-2.443 0-1.664 0.935-2.584 2.143-3.08V313.592L-297.026 313.592zM-295.195 319.575c1.323 0.602 2.258 1.416 2.258 2.727 0 1.31-0.973 2.194-2.258 2.69V319.575L-295.195 319.575zM-297.026 301.271v2.62c-4.167 0.46-7.828 2.621-7.828 7.471 0 4.921 4.323 6.195 7.828 7.435v6.621c-0.273 0.07-0.506 0.07-0.74 0.07-2.142 0-4.284-0.602-6.153-1.521l-0.507 4.461c2.688 0.601 4.011 0.956 6.971 0.956 0.117 0 0.273 0 0.429-0.036v2.797h1.831v-2.902c4.478-0.496 7.944-2.69 7.944-7.33 0-5.098-4.519-6.372-7.944-7.611v-6.55c0.117-0.035 0.194-0.035 0.311-0.035 1.908 0 3.816 0.39 5.53 1.062l0.507-4.071c-1.948-0.603-4.051-0.886-6.348-0.886v-2.548H-297.026L-297.026 301.271z" fill="#FFFFFF" data-fill-palette-color="quaternary"></path></svg></g></svg></g><g><path d="M31.972 106.35l-1.663 5.353-26.594-8.262 3.309-10.649 5.172 1.607-1.645 5.296 4.241 1.317 1.559-5.02 5.106 1.586-1.56 5.02z" fill="#FFFFFF" data-fill-palette-color="quaternary"></path><path d="M54.705 66.122l-3.423 4.145-21.474-17.73 3.423-4.146z" fill="#FFFFFF" data-fill-palette-color="quaternary"></path><path d="M87.421 40.762l-4.831 2.514-12.854-24.704 5.088-2.647 8.418 10.637-6.148-11.818 4.778-2.486 12.854 24.704-4.832 2.514-8.906-11.079z" fill="#FFFFFF" data-fill-palette-color="quaternary"></path><path d="M134.105 28.079l-5.412 0.202 1.647-27.929 9.432-0.352 3.696 27.729-5.284 0.198-0.556-4.493-3.373 0.126zM135.023 4.91l-0.506 14.197 2.527-0.095-1.762-14.112z" fill="#FFFFFF" data-fill-palette-color="quaternary"></path><path d="M183.015 36.472l-5.031-2.085 10.66-25.727 5.298 2.196-2.736 13.286 5.1-12.307 4.976 2.062-10.66 25.727-5.031-2.085 2.76-13.944z" fill="#FFFFFF" data-fill-palette-color="quaternary"></path><path d="M223.835 65.6c-1.369-1.5-1.995-3.131-1.878-4.892 0.118-1.761 1-3.394 2.648-4.898v0l9.478-8.652c2.044-1.866 3.957-2.867 5.739-3.002 1.777-0.131 3.46 0.674 5.049 2.415v0c1.383 1.515 2.083 3.113 2.1 4.796 0.017 1.683-0.758 3.24-2.327 4.672v0l-3.537 3.229-3.739-4.096 3.037-2.772c0.593-0.541 0.935-0.984 1.026-1.328 0.096-0.348-0.018-0.699-0.34-1.051v0c-0.336-0.368-0.694-0.504-1.073-0.408-0.376 0.1-0.811 0.377-1.307 0.828v0l-10.323 9.425c-0.544 0.497-0.867 0.935-0.969 1.316-0.102 0.39-0.008 0.744 0.282 1.063v0c0.582 0.637 1.392 0.482 2.432-0.467v0l3.713-3.39 3.786 4.147-3.882 3.544c-3.446 3.146-6.751 2.986-9.915-0.479z" fill="#FFFFFF" data-fill-palette-color="quaternary"></path><path d="M249.66 112.458l-3.593-10.934 26.457-8.692 3.481 10.594-5.108 1.678-1.709-5.203-5.146 1.691 1.638 4.985-4.995 1.641-1.637-4.985-6.064 1.992 1.822 5.543z" fill="#FFFFFF" data-fill-palette-color="quaternary"></path><path d="M9.957 187.002l-1.694-5.364 21.657-6.839-1.004-3.18 5.145-1.625 3.706 11.735-5.146 1.625-1.007-3.191z" fill="#FFFFFF" data-fill-palette-color="quaternary"></path><path d="M13.264 195.823l25.449-11.93 3.664 7.816c0.586 1.25 0.756 2.347 0.509 3.291-0.241 0.941-0.815 1.771-1.724 2.491-0.906 0.711-2.149 1.436-3.73 2.177v0c-1.442 0.676-2.654 1.017-3.634 1.022-0.989 0.002-1.859-0.386-2.611-1.162v0c0.204 0.843 0.082 1.582-0.368 2.218-0.452 0.63-1.202 1.19-2.248 1.68v0l-9.657 4.45-2.333-4.976 9.953-4.665c0.715-0.335 1.104-0.686 1.166-1.053 0.069-0.369-0.067-0.918-0.408-1.645v0l-11.611 5.443zM31.722 193.493l0.571 1.217c0.332 0.709 1.268 0.703 2.806-0.018v0c0.673-0.316 1.164-0.582 1.472-0.8 0.308-0.218 0.489-0.435 0.542-0.65 0.053-0.215 0.009-0.473-0.131-0.774v0l-0.554-1.181z" fill="#FFFFFF" data-fill-palette-color="quaternary"></path><path d="M25.134 217.851l-3.045-4.539 24.856-13.401 5.302 7.905-21.844 17.89-2.973-4.432 3.562-2.857-1.897-2.828zM45.51 206.352l-12.455 7.097 1.42 2.117 11.18-8.999z" fill="#FFFFFF" data-fill-palette-color="quaternary"></path><path d="M38.637 235.661c-1.378-1.519-2.002-3.166-1.873-4.941 0.124-1.78 1.017-3.423 2.679-4.93v0l9.595-8.702c2.07-1.877 4.003-2.883 5.8-3.016 1.796-0.124 3.493 0.694 5.089 2.454v0c1.396 1.539 2.097 3.157 2.103 4.854 0.016 1.697-0.77 3.266-2.358 4.706v0l-3.584 3.251-3.759-4.145 3.075-2.789c0.6-0.544 0.946-0.992 1.038-1.345 0.097-0.348-0.017-0.701-0.343-1.06v0c-0.334-0.369-0.694-0.504-1.079-0.405-0.381 0.094-0.822 0.369-1.323 0.823v0l-10.443 9.472c-0.551 0.499-0.878 0.944-0.982 1.333-0.104 0.39-0.01 0.744 0.28 1.064v0c0.589 0.649 1.409 0.496 2.461-0.458v0l3.754-3.404 3.799 4.188-3.923 3.559c-3.491 3.166-6.826 2.996-10.006-0.509z" fill="#FFFFFF" data-fill-palette-color="quaternary"></path><path d="M52.828 248.7l-4.336-3.537 17.766-21.78 4.313 3.519-7.118 8.725 9.139-7.077 4.39 3.581-10.561 7.986-6.696 14.209-4.513-3.681 6.219-12.492z" fill="#FFFFFF" data-fill-palette-color="quaternary"></path><path d="M68.39 260.02l-4.557-2.945 15.256-23.606 4.557 2.946z" fill="#FFFFFF" data-fill-palette-color="quaternary"></path><path d="M79.067 265.656l-4.93-2.43 12.427-25.211 5.197 2.562-3.634 13.205 5.947-12.065 4.876 2.404-12.427 25.21-4.929-2.43 3.692-13.864z" fill="#FFFFFF" data-fill-palette-color="quaternary"></path><path d="M98.784 273.833c-1.938-0.608-3.169-1.741-3.692-3.401-0.517-1.658-0.341-3.87 0.527-6.638v0l3.623-11.552c0.777-2.476 1.915-4.178 3.416-5.106 1.499-0.921 3.341-1.039 5.527-0.354v0c1.773 0.556 3.038 1.339 3.792 2.348 0.759 1.017 1.113 2.262 1.062 3.734-0.049 1.466-0.408 3.263-1.075 5.391v0l-5.244-1.644 0.754-2.403c0.203-0.646 0.271-1.174 0.204-1.585-0.066-0.41-0.327-0.687-0.783-0.83v0c-1.02-0.32-1.738 0.185-2.155 1.516v0l-4.072 12.986c-0.256 0.817-0.347 1.463-0.274 1.939 0.078 0.484 0.377 0.807 0.896 0.969v0c0.526 0.165 0.955 0.07 1.289-0.284 0.338-0.346 0.635-0.928 0.891-1.745v0l1.204-3.838-1.435-0.45 1.448-4.617 6.555 2.056-4.894 15.609-2.147-0.674-0.206-2.537c-1.479 1.366-3.216 1.736-5.211 1.11z" fill="#FFFFFF" data-fill-palette-color="quaternary"></path><path d="M133.313 279.709l-5.284-0.36 0.628-9.238-3.2-19.108 5.552 0.377 0.924 9.603 2.215-9.389 5.543 0.377-5.749 18.5z" fill="#FFFFFF" data-fill-palette-color="quaternary"></path><path d="M150.485 279.694c-2.264 0.159-4.034-0.408-5.31-1.703-1.269-1.301-1.992-3.204-2.167-5.706v0l-0.939-13.349c-0.17-2.417 0.288-4.282 1.374-5.596 1.092-1.308 2.771-2.041 5.035-2.2v0c2.258-0.159 4.019 0.333 5.284 1.475 1.259 1.149 1.973 2.932 2.142 5.349v0l0.939 13.348c0.177 2.523-0.272 4.511-1.348 5.964-1.082 1.453-2.752 2.26-5.01 2.418zM150.123 274.539c0.497-0.035 0.816-0.277 0.957-0.726 0.149-0.443 0.195-1.058 0.14-1.846v0l-0.964-13.706c-0.043-0.609-0.161-1.1-0.353-1.472-0.192-0.366-0.536-0.531-1.033-0.497v0c-0.934 0.066-1.351 0.807-1.251 2.224v0l0.961 13.676c0.056 0.801 0.195 1.404 0.417 1.808 0.227 0.397 0.603 0.576 1.126 0.539z" fill="#FFFFFF" data-fill-palette-color="quaternary"></path><path d="M170.672 276.606c-2.254 0.503-4.075 0.24-5.461-0.79-1.38-1.032-2.35-2.804-2.911-5.318v0l-4.485-20.085 5.335-1.191 4.435 19.861c0.195 0.875 0.431 1.536 0.708 1.984 0.278 0.455 0.696 0.62 1.253 0.496v0c0.551-0.123 0.86-0.444 0.928-0.962 0.061-0.517-0.008-1.222-0.207-2.117v0l-4.436-19.861 5.335-1.191 4.485 20.085c0.561 2.513 0.434 4.531-0.382 6.053-0.81 1.521-2.342 2.533-4.597 3.036z" fill="#FFFFFF" data-fill-palette-color="quaternary"></path><path d="M183.805 272.728l-10.093-26.232 8.056-3.1c1.289-0.496 2.395-0.587 3.319-0.274 0.922 0.307 1.709 0.939 2.362 1.897 0.644 0.954 1.28 2.246 1.907 3.874v0c0.572 1.487 0.826 2.719 0.761 3.697-0.069 0.986-0.517 1.827-1.344 2.523v0c0.855-0.144 1.584 0.031 2.186 0.525 0.596 0.496 1.102 1.283 1.516 2.36v0l3.754 9.95-5.13 1.973-3.947-10.259c-0.284-0.737-0.606-1.15-0.967-1.238-0.364-0.095-0.92 0.002-1.67 0.29v0l4.605 11.969zM182.791 254.15l1.255-0.482c0.731-0.281 0.791-1.215 0.181-2.801v0c-0.267-0.694-0.498-1.202-0.694-1.525-0.195-0.323-0.399-0.519-0.61-0.587-0.211-0.068-0.472-0.043-0.781 0.076v0l-1.217 0.469z" fill="#FFFFFF" data-fill-palette-color="quaternary"></path><path d="M216.952 255.845l-4.089 2.994-16.607-22.676 6.916-5.065 12.034 12.438-8.235-15.22 6.972-5.107 16.608 22.676-4.145 3.036-11.966-16.338 9.347 18.255-4.064 2.977-14.737-14.308z" fill="#FFFFFF" data-fill-palette-color="quaternary"></path><path d="M240.815 235.866c-1.551 1.657-3.235 2.445-5.05 2.365-1.816-0.09-3.639-0.993-5.471-2.708v0l-9.769-9.144c-1.769-1.656-2.702-3.334-2.801-5.036-0.089-1.702 0.642-3.381 2.193-5.038v0c1.547-1.652 3.172-2.49 4.876-2.514 1.704-0.014 3.441 0.807 5.21 2.462v0l9.769 9.145c1.846 1.728 2.87 3.491 3.07 5.287 0.196 1.802-0.48 3.528-2.027 5.181zM237.043 232.335c0.34-0.363 0.409-0.758 0.207-1.183-0.193-0.426-0.577-0.908-1.154-1.449v0l-10.031-9.389c-0.446-0.417-0.866-0.697-1.26-0.839-0.39-0.137-0.755-0.024-1.095 0.339v0c-0.64 0.683-0.441 1.51 0.596 2.481v0l10.009 9.369c0.586 0.549 1.098 0.896 1.535 1.041 0.437 0.136 0.834 0.012 1.193-0.37z" fill="#FFFFFF" data-fill-palette-color="quaternary"></path><path d="M252.72 220.551l-3.113 4.529-23.161-15.924 3.283-4.775 12.545 5.496-11.084-7.621 3.08-4.48 23.16 15.924-3.113 4.529-13.189-5.649z" fill="#FFFFFF" data-fill-palette-color="quaternary"></path><path d="M266.001 197.011l-5.135 10.423-25.212-12.422 4.972-10.092 4.876 2.402-2.442 4.957 4.894 2.411 2.341-4.751 4.761 2.345-2.341 4.752 5.778 2.847 2.605-5.288z" fill="#FFFFFF" data-fill-palette-color="quaternary"></path><path d="M271.017 182.677l-1.648 5.034-8.8-2.88-19.309-1.595 1.731-5.289 9.536 1.465-8.557-4.455 1.728-5.28 16.519 10.12z" fill="#FFFFFF" data-fill-palette-color="quaternary"></path><path d="M3.759 141.945c0-5.93 4.807-10.737 10.737-10.737 5.93 0 10.737 4.807 10.736 10.737 0 5.93-4.807 10.737-10.736 10.736-5.93 0-10.737-4.807-10.737-10.736z" fill="#FFFFFF" data-fill-palette-color="quaternary"></path><path d="M254.412 141.945c0-5.93 4.807-10.737 10.737-10.737 5.93 0 10.737 4.807 10.737 10.737 0 5.93-4.807 10.737-10.737 10.736-5.93 0-10.737-4.807-10.737-10.736z" fill="#FFFFFF" data-fill-palette-color="quaternary"></path></g></svg></g></svg></g></svg></g></svg></g></svg></g></svg></g><defs></defs></svg>